<?xml version="1.0" standalone="no"?>
<!DOCTYPE svg PUBLIC "-//W3C//DTD SVG 20010904//EN"
 "http://www.w3.org/TR/2001/REC-SVG-20010904/DTD/svg10.dtd">
<svg version="1.0" xmlns="http://www.w3.org/2000/svg"
 width="200.000000pt" height="200.000000pt" viewBox="0 0 200.000000 200.000000"
 preserveAspectRatio="xMidYMid meet">
<metadata>
Created by potrace 1.11, written by Peter Selinger 2001-2013
</metadata>
<g transform="translate(0.000000,200.000000) scale(0.100000,-0.100000)"
fill="#000000" stroke="none">
<path d="M857 1679 c-103 -24 -199 -105 -242 -204 -101 -227 -17 -627 154
-741 28 -18 59 -27 108 -32 59 -6 68 -10 68 -27 0 -15 -9 -21 -42 -27 -112
-19 -193 -101 -178 -182 5 -26 1 -36 -30 -66 -41 -40 -65 -79 -65 -110 0 -18
6 -20 58 -20 53 0 60 3 80 30 13 16 26 30 30 30 4 0 16 -14 26 -31 10 -17 21
-28 24 -25 3 4 -15 36 -40 74 -62 92 -68 104 -64 146 3 50 45 91 119 116 77
26 87 25 87 -3 0 -45 93 -64 130 -27 11 11 20 30 20 41 0 21 3 21 58 16 77 -8
84 -12 105 -53 13 -26 15 -40 7 -55 -6 -10 -12 -19 -13 -19 -1 0 -24 7 -51 15
-62 19 -267 19 -354 1 -67 -15 -100 -32 -42 -23 186 31 328 30 414 -3 24 -9
27 -14 21 -38 -3 -15 -25 -61 -48 -102 -23 -41 -43 -78 -45 -82 -2 -5 16 -8
41 -8 41 0 47 3 71 40 23 36 29 39 47 29 12 -6 28 -24 37 -40 16 -27 21 -29
80 -29 58 0 62 2 62 23 0 39 -57 125 -99 149 -36 20 -38 24 -34 62 8 83 -57
137 -192 159 -72 11 -74 12 -80 45 -6 30 -2 37 44 78 29 26 62 69 78 102 28
57 28 57 26 252 -1 133 -6 219 -17 270 -45 215 -175 312 -359 269z m143 -57
c144 -150 198 -586 99 -798 -27 -57 -60 -78 -155 -99 -94 -21 -140 -10 -198
48 -144 145 -203 463 -124 674 39 106 125 180 243 209 78 19 86 17 135 -34z"/>
<path d="M670 1403 c-55 -20 -77 -85 -44 -131 57 -82 186 -17 153 77 -16 44
-67 69 -109 54z"/>
<path d="M921 1384 c-33 -41 -28 -96 10 -128 35 -30 47 -31 94 -12 62 26 74
89 26 137 -40 40 -100 41 -130 3z"/>
<path d="M717 1200 c-43 -20 -80 -40 -84 -43 -3 -4 6 -25 22 -47 21 -30 26
-46 21 -67 -18 -74 -19 -86 -2 -95 9 -5 16 -16 16 -23 0 -13 26 -15 153 -15
83 0 169 3 190 6 l38 7 -3 91 -3 91 -175 5 c-162 5 -172 6 -129 17 26 7 57 21
70 32 20 16 22 22 12 43 -17 39 -43 38 -126 -2z m101 8 c22 -22 13 -36 -35
-52 -26 -9 -47 -16 -49 -16 -1 0 -4 9 -7 20 -4 14 4 25 27 39 36 24 48 25 64
9z m-101 -53 c3 -9 3 -19 -1 -22 -8 -9 -37 18 -30 28 8 14 24 11 31 -6z m-37
-20 c10 -12 9 -15 -8 -15 -11 0 -22 7 -26 15 -3 9 0 15 8 15 7 0 19 -7 26 -15z
m168 -63 c-2 -4 -12 -31 -23 -59 -18 -47 -23 -53 -49 -53 -26 0 -28 3 -23 28
3 15 9 36 13 47 4 11 4 17 0 13 -4 -3 -14 -24 -21 -45 -11 -31 -18 -38 -39
-38 -31 -1 -33 12 -10 71 l16 43 70 0 c38 0 68 -3 66 -7z m159 -6 c-3 -8 -11
-32 -18 -55 -11 -39 -14 -41 -50 -41 l-38 0 15 43 c8 23 16 48 19 55 2 6 21
12 41 12 27 0 35 -4 31 -14z m32 -117 c-8 -5 -23 -8 -34 -7 -17 1 -17 1 3 5
19 4 22 11 23 56 l1 52 10 -49 c9 -38 8 -50 -3 -57z m-27 46 c3 -14 1 -25 -3
-25 -5 0 -9 11 -9 25 0 14 2 25 4 25 2 0 6 -11 8 -25z m-33 -49 c-10 -9 -269
-15 -264 -6 4 6 65 10 137 10 72 0 129 -2 127 -4z"/>
<path d="M990 491 c0 -6 5 -13 10 -16 6 -3 10 1 10 9 0 9 -4 16 -10 16 -5 0
-10 -4 -10 -9z"/>
<path d="M1090 484 c0 -8 5 -12 10 -9 6 3 10 10 10 16 0 5 -4 9 -10 9 -5 0
-10 -7 -10 -16z"/>
<path d="M910 480 c0 -5 5 -10 10 -10 6 0 10 5 10 10 0 6 -4 10 -10 10 -5 0
-10 -4 -10 -10z"/>
<path d="M830 470 c0 -5 5 -10 10 -10 6 0 10 5 10 10 0 6 -4 10 -10 10 -5 0
-10 -4 -10 -10z"/>
<path d="M1170 471 c0 -6 5 -13 10 -16 6 -3 10 1 10 9 0 9 -4 16 -10 16 -5 0
-10 -4 -10 -9z"/>
</g>
</svg>
